<svg width="250" height="227" fill="none" xmlns="http://www.w3.org/2000/svg"><path d="M37 10c0-5.523 4.477-10 10-10h159c5.523 0 10 4.477 10 10v169H37V10z" fill="#EEA849"/><path d="M171.623 123.436h-69.796l-14.334 12.236-14.334-12.236H42.967v8.39c0 10.695 7.387 19.407 16.522 19.578.85 5.286 2.906 10.062 6 13.799 4.576 5.528 11.229 8.576 18.732 8.576h46.148c7.503 0 14.156-3.048 18.732-8.583 3.094-3.737 5.15-8.513 5.999-13.799 4.853-.087 9.213-2.587 12.237-6.513a21.425 21.425 0 004.286-13.058v-8.39zm-97.541-11.188l13.4 9.856 13.52-9.856h70.621v-2.797a14.012 14.012 0 00-11.188-13.704c-.286-10.38-4.545-19.068-12.414-25.172-7.279-5.678-17.005-8.67-28.14-8.67H94.709c-23.85 0-40.006 13.554-40.555 33.841a14.01 14.01 0 00-11.187 13.705v2.797h31.115z" fill="#252525"/><path d="M199.27 33.935h-26.077l3.118-12.467 15.589-5.363-3.496-10.138-21.675 6.992-5.066 20.976h-51.571v11.188h6.555l.65 5.594h2.584c13.635 0 25.752 3.81 35.003 11.02a42.619 42.619 0 0112.194 14.875 43.381 43.381 0 013.751 11.415 25.174 25.174 0 019.751 31.78 33.574 33.574 0 012.231 12.019c0 7.81-2.657 15.254-7.482 20.959a27.968 27.968 0 01-11.128 8.024 38.199 38.199 0 01-6.478 11.537 36.91 36.91 0 01-1.27 1.451h26.358c5.593 0 8.041-2.797 8.74-8.041l12.726-120.615h6.502V33.934H199.27z" fill="#252525"/><rect y="177" width="250" height="50" rx="10" fill="#EEA849"/><path d="M37.938 203.016h-5.844l-.032-3.219h4.907c.864 0 1.573-.109 2.125-.328.552-.229.963-.558 1.234-.985.281-.437.422-.968.422-1.593 0-.709-.135-1.282-.406-1.719-.26-.438-.672-.755-1.235-.953-.552-.198-1.265-.297-2.14-.297h-3.25V213H29.03v-22.75h7.938c1.323 0 2.505.125 3.547.375 1.052.25 1.942.63 2.672 1.141a5.072 5.072 0 011.671 1.937c.386.771.578 1.688.578 2.75 0 .938-.213 1.802-.64 2.594-.417.792-1.078 1.437-1.984 1.937-.896.5-2.068.776-3.516.828l-1.36 1.204zM37.733 213h-6.922l1.829-3.656h5.093c.823 0 1.495-.13 2.016-.391.52-.271.906-.635 1.156-1.094.25-.458.375-.984.375-1.578 0-.666-.114-1.245-.343-1.734a2.316 2.316 0 00-1.063-1.125c-.49-.271-1.135-.406-1.938-.406h-4.515l.031-3.219h5.625l1.078 1.265c1.386-.02 2.5.224 3.344.735.854.5 1.474 1.151 1.86 1.953.395.802.593 1.661.593 2.578 0 1.458-.318 2.688-.953 3.688-.635.989-1.568 1.734-2.797 2.234-1.219.5-2.708.75-4.469.75zm10.735-8.281v-.328c0-1.24.177-2.381.531-3.422.354-1.052.87-1.964 1.547-2.735a6.938 6.938 0 012.5-1.796c.99-.438 2.125-.657 3.406-.657 1.281 0 2.422.219 3.422.657a6.908 6.908 0 012.516 1.796c.687.771 1.208 1.683 1.562 2.735.354 1.041.531 2.182.531 3.422v.328c0 1.229-.177 2.37-.53 3.422a7.976 7.976 0 01-1.563 2.734 6.929 6.929 0 01-2.5 1.797c-.99.427-2.125.64-3.407.64-1.28 0-2.422-.213-3.422-.64a7.078 7.078 0 01-2.515-1.797A8.115 8.115 0 0149 208.141c-.354-1.052-.531-2.193-.531-3.422zm4.5-.328v.328c0 .708.062 1.37.187 1.984.125.615.323 1.156.594 1.625.281.458.646.818 1.094 1.078.448.261.995.391 1.64.391.625 0 1.162-.13 1.61-.391.448-.26.807-.62 1.078-1.078.27-.469.469-1.01.594-1.625a9.209 9.209 0 00.203-1.984v-.328a8.87 8.87 0 00-.203-1.938 5.12 5.12 0 00-.61-1.625 3.028 3.028 0 00-1.078-1.125c-.448-.271-.99-.406-1.625-.406s-1.177.135-1.625.406a3.199 3.199 0 00-1.078 1.125 5.371 5.371 0 00-.594 1.625 9.554 9.554 0 00-.187 1.938zm23.422 3.937a1.46 1.46 0 00-.282-.875c-.187-.26-.536-.5-1.046-.719-.5-.229-1.225-.437-2.172-.625a16.78 16.78 0 01-2.391-.703 8.237 8.237 0 01-1.906-1.047 4.547 4.547 0 01-1.25-1.437c-.302-.563-.453-1.203-.453-1.922 0-.708.15-1.375.453-2a5.153 5.153 0 011.328-1.656c.583-.49 1.291-.87 2.125-1.141.844-.281 1.791-.422 2.844-.422 1.468 0 2.729.235 3.78.703 1.063.469 1.876 1.115 2.438 1.938.573.812.86 1.739.86 2.781h-4.5a2.41 2.41 0 00-.281-1.172 1.858 1.858 0 00-.844-.828c-.375-.208-.865-.312-1.469-.312-.5 0-.932.088-1.297.265a1.99 1.99 0 00-.844.688 1.653 1.653 0 00-.28.937c0 .261.051.495.155.703.115.198.297.381.547.547.25.167.573.323.969.469.406.135.906.26 1.5.375 1.219.25 2.307.578 3.266.984.958.396 1.718.938 2.28 1.625.563.677.845 1.568.845 2.672a4.32 4.32 0 01-.5 2.063 4.978 4.978 0 01-1.438 1.64c-.625.459-1.375.818-2.25 1.079-.865.25-1.838.374-2.922.374-1.573 0-2.906-.281-4-.843-1.083-.563-1.906-1.276-2.469-2.141-.552-.875-.828-1.771-.828-2.687h4.266c.02.614.177 1.109.469 1.484.302.375.682.646 1.14.813.47.166.974.25 1.516.25.583 0 1.068-.079 1.453-.235.385-.167.677-.385.875-.656a1.58 1.58 0 00.313-.969zm16.437 0c0-.323-.094-.614-.281-.875-.188-.26-.537-.5-1.047-.719-.5-.229-1.224-.437-2.172-.625a16.78 16.78 0 01-2.39-.703 8.24 8.24 0 01-1.907-1.047 4.55 4.55 0 01-1.25-1.437c-.302-.563-.453-1.203-.453-1.922 0-.708.151-1.375.453-2a5.156 5.156 0 011.328-1.656c.584-.49 1.292-.87 2.125-1.141.844-.281 1.792-.422 2.844-.422 1.469 0 2.73.235 3.781.703 1.063.469 1.875 1.115 2.438 1.938.573.812.86 1.739.86 2.781h-4.5a2.41 2.41 0 00-.282-1.172 1.858 1.858 0 00-.844-.828c-.375-.208-.864-.312-1.469-.312-.5 0-.932.088-1.296.265a1.99 1.99 0 00-.844.688 1.653 1.653 0 00-.281.937c0 .261.052.495.156.703.115.198.297.381.547.547.25.167.573.323.969.469.406.135.906.26 1.5.375 1.218.25 2.307.578 3.265.984.959.396 1.719.938 2.281 1.625.563.677.844 1.568.844 2.672 0 .75-.166 1.438-.5 2.063-.333.625-.812 1.172-1.437 1.64-.625.459-1.375.818-2.25 1.079-.865.25-1.839.374-2.922.374-1.573 0-2.906-.281-4-.843-1.084-.563-1.906-1.276-2.469-2.141-.552-.875-.828-1.771-.828-2.687h4.266c.02.614.177 1.109.468 1.484.302.375.682.646 1.14.813.47.166.975.25 1.516.25.584 0 1.068-.079 1.454-.235.385-.167.677-.385.875-.656.208-.281.312-.604.312-.969zM109 201.469V205h-8.828v-3.531H109zm12.938 1.547h-5.844l-.032-3.219h4.907c.864 0 1.573-.109 2.125-.328.552-.229.963-.558 1.234-.985.281-.437.422-.968.422-1.593 0-.709-.135-1.282-.406-1.719-.261-.438-.672-.755-1.235-.953-.552-.198-1.265-.297-2.14-.297h-3.25V213h-4.688v-22.75h7.938c1.323 0 2.505.125 3.547.375 1.052.25 1.942.63 2.672 1.141a5.068 5.068 0 011.671 1.937c.386.771.579 1.688.579 2.75 0 .938-.214 1.802-.641 2.594-.417.792-1.078 1.437-1.985 1.937-.895.5-2.067.776-3.515.828l-1.359 1.204zm-.204 9.984h-6.922l1.829-3.656h5.093c.823 0 1.495-.13 2.016-.391.521-.271.906-.635 1.156-1.094.25-.458.375-.984.375-1.578 0-.666-.114-1.245-.343-1.734a2.316 2.316 0 00-1.063-1.125c-.49-.271-1.135-.406-1.937-.406h-4.516l.031-3.219h5.625l1.078 1.265c1.386-.02 2.5.224 3.344.735.854.5 1.474 1.151 1.859 1.953.396.802.594 1.661.594 2.578 0 1.458-.318 2.688-.953 3.688-.635.989-1.568 1.734-2.797 2.234-1.219.5-2.708.75-4.469.75zm21.454-4.047v-12.859h4.5V213h-4.235l-.265-4.047zm.5-3.469l1.328-.031c0 1.125-.131 2.172-.391 3.141-.26.958-.651 1.791-1.172 2.5a5.464 5.464 0 01-1.969 1.64c-.791.386-1.724.578-2.796.578a7.284 7.284 0 01-2.282-.343 4.654 4.654 0 01-1.781-1.11c-.49-.51-.875-1.161-1.156-1.953-.271-.802-.407-1.765-.407-2.89v-10.922h4.5v10.953c0 .5.058.922.172 1.265.125.344.297.626.516.844.219.219.474.375.766.469.302.094.635.141 1 .141.927 0 1.656-.188 2.187-.563a2.966 2.966 0 001.141-1.531c.229-.656.344-1.386.344-2.188zm11.937-5.703V213h-4.5v-16.906h4.234l.266 3.687zm5.094-3.797l-.078 4.172a11.165 11.165 0 00-.797-.078 8.173 8.173 0 00-.828-.047c-.636 0-1.188.084-1.657.25a2.974 2.974 0 00-1.156.703 3.072 3.072 0 00-.687 1.141c-.146.448-.23.958-.25 1.531l-.907-.281c0-1.094.11-2.099.329-3.016.218-.927.536-1.734.953-2.421.427-.688.948-1.219 1.562-1.594.615-.375 1.318-.563 2.109-.563.25 0 .506.021.766.063.261.031.474.078.641.14zm12.515.11h4.078v16.344c0 1.541-.343 2.848-1.031 3.921-.677 1.084-1.625 1.901-2.843 2.453-1.219.563-2.636.844-4.25.844a9.792 9.792 0 01-2.25-.281 8.953 8.953 0 01-2.25-.875 5.943 5.943 0 01-1.782-1.5l1.985-2.656a5.599 5.599 0 001.812 1.406c.688.344 1.448.516 2.281.516.813 0 1.5-.151 2.063-.454a2.996 2.996 0 001.297-1.296c.302-.563.453-1.245.453-2.047V200l.437-3.906zm-11.375 8.656v-.328c0-1.292.157-2.464.469-3.516.323-1.062.776-1.974 1.36-2.734a6.169 6.169 0 012.156-1.766c.844-.416 1.797-.625 2.859-.625 1.125 0 2.068.209 2.828.625a5.106 5.106 0 011.875 1.782c.49.76.87 1.661 1.141 2.703.281 1.031.5 2.161.656 3.39V205a20.032 20.032 0 01-.703 3.281c-.312 1.011-.724 1.896-1.234 2.657a5.466 5.466 0 01-1.907 1.75c-.75.416-1.645.624-2.687.624-1.042 0-1.984-.213-2.828-.64a6.311 6.311 0 01-2.141-1.797c-.594-.771-1.052-1.677-1.375-2.719-.312-1.041-.469-2.177-.469-3.406zm4.5-.328v.328c0 .698.068 1.349.203 1.953a5.39 5.39 0 00.626 1.609c.291.459.651.818 1.078 1.079.437.25.953.375 1.546.375.823 0 1.495-.172 2.016-.516a3.238 3.238 0 001.172-1.453c.26-.615.411-1.323.453-2.125v-2.047a6.936 6.936 0 00-.265-1.766 4.256 4.256 0 00-.657-1.359 2.834 2.834 0 00-1.093-.875c-.448-.208-.98-.313-1.594-.313-.594 0-1.11.136-1.547.407-.427.26-.787.62-1.078 1.078-.281.458-.495 1-.641 1.625a8.639 8.639 0 00-.219 2zm24.453 4.531v-12.859h4.5V213h-4.234l-.266-4.047zm.5-3.469l1.329-.031c0 1.125-.131 2.172-.391 3.141-.26.958-.651 1.791-1.172 2.5a5.464 5.464 0 01-1.969 1.64c-.791.386-1.724.578-2.797.578a7.282 7.282 0 01-2.281-.343 4.654 4.654 0 01-1.781-1.11c-.49-.51-.875-1.161-1.156-1.953-.271-.802-.406-1.765-.406-2.89v-10.922h4.5v10.953c0 .5.057.922.171 1.265.125.344.297.626.516.844.219.219.474.375.766.469.302.094.635.141 1 .141.927 0 1.656-.188 2.187-.563a2.966 2.966 0 001.141-1.531c.229-.656.343-1.386.343-2.188zm15.219 7.828c-1.312 0-2.489-.208-3.531-.624-1.042-.428-1.927-1.016-2.656-1.766a7.833 7.833 0 01-1.656-2.61 8.771 8.771 0 01-.579-3.187v-.625c0-1.281.183-2.453.547-3.516.365-1.062.886-1.984 1.563-2.765a6.868 6.868 0 012.5-1.797c.979-.427 2.083-.641 3.312-.641 1.198 0 2.261.198 3.188.594a6.249 6.249 0 012.328 1.687c.635.73 1.114 1.605 1.437 2.626.323 1.01.485 2.135.485 3.374v1.876h-13.438v-3h9.016v-.344c0-.625-.115-1.183-.344-1.672a2.658 2.658 0 00-1-1.188c-.448-.291-1.021-.437-1.719-.437-.593 0-1.104.13-1.531.391-.427.26-.776.624-1.047 1.093a5.986 5.986 0 00-.594 1.657 10.602 10.602 0 00-.187 2.062v.625c0 .677.094 1.302.281 1.875.198.573.474 1.068.828 1.484.365.417.802.74 1.313.969.521.229 1.109.344 1.765.344.813 0 1.568-.156 2.266-.469a4.903 4.903 0 001.828-1.453l2.188 2.375c-.354.51-.839 1-1.453 1.469-.605.469-1.334.854-2.188 1.156-.854.292-1.828.437-2.922.437zm14-13.531V213h-4.5v-16.906h4.235l.265 3.687zm5.094-3.797l-.078 4.172a11.165 11.165 0 00-.797-.078 8.173 8.173 0 00-.828-.047c-.636 0-1.188.084-1.656.25a2.97 2.97 0 00-1.157.703 3.072 3.072 0 00-.687 1.141 5.603 5.603 0 00-.25 1.531l-.906-.281c0-1.094.109-2.099.328-3.016.218-.927.536-1.734.953-2.421.427-.688.948-1.219 1.562-1.594.615-.375 1.318-.563 2.11-.563.25 0 .505.021.765.063.261.031.474.078.641.14z" fill="#252525"/></svg>