<svg width="122" height="55" fill="none" xmlns="http://www.w3.org/2000/svg"><path d="M68.672 34.28a1.9 1.9 0 00-.117-.684 1.29 1.29 0 00-.41-.567c-.202-.176-.486-.348-.85-.517a12.05 12.05 0 00-1.416-.528 17.918 17.918 0 01-1.836-.703 7.541 7.541 0 01-1.524-.908 4.09 4.09 0 01-1.035-1.22c-.247-.463-.37-1-.37-1.612 0-.592.13-1.13.39-1.611.26-.489.625-.905 1.094-1.25a5.194 5.194 0 011.66-.81 7.516 7.516 0 012.119-.284c1.048 0 1.963.189 2.744.566.781.378 1.387.895 1.817 1.553.436.658.654 1.41.654 2.256h-2.91c0-.417-.088-.781-.264-1.094-.17-.319-.43-.57-.781-.752-.345-.182-.781-.273-1.309-.273-.508 0-.93.078-1.27.234-.338.15-.592.355-.761.615-.17.254-.254.54-.254.86 0 .24.059.459.176.654.123.195.306.378.547.547.24.17.537.329.888.479.352.15.759.296 1.221.439a13.04 13.04 0 012.041.79 6.36 6.36 0 011.484.987c.397.365.697.778.899 1.24.202.463.303.987.303 1.573 0 .618-.12 1.172-.362 1.66-.24.488-.589.902-1.045 1.24-.455.339-.999.596-1.63.772a7.9 7.9 0 01-2.12.263 8.04 8.04 0 01-2.08-.273 6.317 6.317 0 01-1.865-.85 4.282 4.282 0 01-1.328-1.445c-.332-.586-.498-1.28-.498-2.08h2.94c0 .443.068.817.204 1.123.137.306.33.553.576.742.254.189.554.326.899.41.351.085.736.127 1.152.127.508 0 .925-.071 1.25-.215.332-.143.577-.341.733-.595.163-.254.244-.54.244-.86zm10.45 1.337V30.91a2.07 2.07 0 00-.167-.869 1.236 1.236 0 00-.517-.576c-.228-.137-.525-.205-.89-.205-.312 0-.582.055-.81.166a1.172 1.172 0 00-.527.459 1.268 1.268 0 00-.186.693h-2.812c0-.45.104-.875.312-1.28a3.19 3.19 0 01.909-1.064 4.496 4.496 0 011.416-.732 6.112 6.112 0 011.855-.264c.82 0 1.55.137 2.188.41a3.353 3.353 0 011.504 1.23c.37.548.556 1.231.556 2.052v4.521c0 .58.036 1.055.108 1.426.071.364.175.683.312.957V38h-2.842a4.063 4.063 0 01-.312-1.074 8.84 8.84 0 01-.098-1.309zm.37-4.052l.02 1.591h-1.573c-.37 0-.693.043-.966.127a1.8 1.8 0 00-.674.361c-.176.15-.306.326-.39.528a1.825 1.825 0 00-.118.664c0 .24.055.459.166.654.11.189.27.339.479.45.208.104.452.156.732.156.423 0 .791-.085 1.103-.254.313-.17.554-.378.723-.625.176-.248.267-.482.274-.703l.742 1.191a4.828 4.828 0 01-.43.83c-.176.287-.4.557-.674.81a3.474 3.474 0 01-.986.616c-.384.156-.84.234-1.367.234-.67 0-1.28-.133-1.826-.4a3.33 3.33 0 01-1.29-1.123 2.949 2.949 0 01-.468-1.64c0-.554.104-1.046.312-1.475.209-.43.515-.791.918-1.084.41-.3.921-.524 1.533-.674.612-.156 1.322-.235 2.13-.235h1.63zm7.598-4.131V38h-2.822V27.434h2.822zm-2.998-2.754c0-.41.143-.749.43-1.016.286-.267.67-.4 1.152-.4.475 0 .856.133 1.142.4.293.267.44.605.44 1.016 0 .41-.147.748-.44 1.015-.286.267-.667.4-1.142.4-.482 0-.866-.133-1.153-.4a1.328 1.328 0 01-.43-1.015zm8.076 5.01V38h-2.813V27.434h2.637l.176 2.255zm-.41 2.656h-.762c0-.781.101-1.485.303-2.11.202-.631.485-1.168.85-1.611a3.65 3.65 0 011.298-1.025 3.915 3.915 0 011.7-.362 4.1 4.1 0 011.357.215c.41.143.762.371 1.055.684.3.312.527.726.683 1.24.163.514.244 1.143.244 1.885V38h-2.832v-6.748c0-.469-.065-.833-.195-1.094a1.097 1.097 0 00-.576-.547c-.248-.11-.554-.166-.918-.166a2.06 2.06 0 00-.987.225c-.273.15-.5.358-.683.625a2.95 2.95 0 00-.4.918c-.092.351-.137.73-.137 1.133zm14.043-4.912v1.992h-6.153v-1.992h6.153zm-4.629-2.608h2.812v9.99c0 .306.039.54.118.703a.7.7 0 00.371.342c.162.059.367.088.615.088.176 0 .332-.006.469-.02a5.44 5.44 0 00.361-.058l.01 2.07c-.241.078-.502.14-.782.186a5.791 5.791 0 01-.927.068c-.619 0-1.159-.1-1.621-.302a2.231 2.231 0 01-1.055-.996c-.247-.456-.371-1.055-.371-1.797V24.826zM110.371 23v15h-2.822V23h2.822zm5.459 13.809l2.803-9.375h3.017l-4.248 12.158a6.469 6.469 0 01-.371.86 3.47 3.47 0 01-.615.868c-.254.28-.576.508-.967.684-.384.176-.856.264-1.416.264-.267 0-.485-.017-.654-.05a11.798 11.798 0 01-.606-.136v-2.06h.225c.078.006.153.01.225.01.371 0 .673-.043.908-.128.234-.084.423-.215.566-.39.143-.17.257-.391.342-.664l.791-2.041zm-1.172-9.375l2.295 7.656.401 2.978-1.915.205-3.798-10.84h3.017z" fill="#252525"/><path fill="#EEA849" d="M0 0h55v55H0z"/><path d="M29.316 30.09c0-.128-.04-.24-.12-.337-.076-.097-.216-.186-.42-.267-.198-.08-.48-.16-.843-.24a6.188 6.188 0 01-.959-.28 3.368 3.368 0 01-.774-.425 1.86 1.86 0 01-.514-.597 1.675 1.675 0 01-.184-.794c0-.287.06-.56.184-.819.127-.258.308-.486.545-.685.242-.199.534-.355.876-.47a3.778 3.778 0 011.181-.171c.605 0 1.128.095 1.568.286.44.186.779.448 1.016.787.237.334.355.717.355 1.149h-1.98a.998.998 0 00-.102-.464.699.699 0 00-.311-.305c-.14-.076-.324-.114-.552-.114-.178 0-.335.032-.47.095a.757.757 0 00-.311.248.638.638 0 00-.045.635.773.773 0 00.21.216c.097.063.222.12.375.171.156.05.346.1.57.146.479.089.915.214 1.308.375.398.16.716.383.953.666.24.284.361.658.361 1.123 0 .305-.07.585-.21.838a1.996 1.996 0 01-.59.667c-.258.19-.567.338-.926.444-.36.106-.766.159-1.219.159-.647 0-1.195-.116-1.644-.35-.448-.232-.787-.524-1.016-.875a2.023 2.023 0 01-.336-1.092h1.86a.983.983 0 00.171.559c.11.143.252.25.425.317.174.064.369.095.584.095.216 0 .396-.03.54-.089a.764.764 0 00.33-.24.603.603 0 00.114-.363zM12.178 9.89V17h-1.592V9.89h1.592zm2.798 2.999v1.23h-3.243v-1.23h3.243zm.312-2.998v1.235h-3.555V9.891h3.555zm30.226 3.399v.316c0 .54-.075 1.026-.225 1.456-.146.43-.356.795-.63 1.098a2.73 2.73 0 01-.967.698c-.37.16-.782.24-1.235.24-.452 0-.866-.08-1.24-.24a2.848 2.848 0 01-.977-.698 3.175 3.175 0 01-.635-1.098 4.404 4.404 0 01-.224-1.456v-.317c0-.54.075-1.025.224-1.455.15-.433.36-.8.63-1.104.274-.302.598-.533.972-.693a3.078 3.078 0 011.24-.244c.453 0 .866.081 1.24.244.375.16.697.39.967.693.274.303.485.671.635 1.104.15.43.225.915.225 1.455zm-1.607.316v-.327c0-.361-.032-.68-.097-.957a2.175 2.175 0 00-.284-.703 1.215 1.215 0 00-.459-.425 1.293 1.293 0 00-.62-.146c-.24 0-.45.049-.63.146-.179.095-.33.236-.454.425-.12.189-.213.423-.278.703a4.413 4.413 0 00-.093.957v.327c0 .358.031.678.093.957.065.277.16.511.283.704.124.192.275.337.454.434.183.098.394.147.635.147.231 0 .436-.05.615-.147.183-.098.336-.242.46-.434a2.18 2.18 0 00.278-.704c.065-.28.097-.599.097-.957zM16.514 41.29v.316c0 .54-.075 1.026-.225 1.456-.146.43-.356.795-.63 1.098a2.73 2.73 0 01-.967.698c-.37.16-.783.24-1.235.24-.452 0-.866-.08-1.24-.24a2.848 2.848 0 01-.977-.698 3.175 3.175 0 01-.635-1.098 4.404 4.404 0 01-.224-1.456v-.317c0-.54.075-1.025.224-1.455.15-.433.36-.8.63-1.104.274-.302.598-.533.972-.693a3.077 3.077 0 011.24-.244c.453 0 .866.081 1.24.244.375.16.697.39.967.694.274.302.485.67.635 1.103.15.43.225.915.225 1.455zm-1.607.316v-.327c0-.361-.032-.68-.097-.957a2.175 2.175 0 00-.284-.703 1.215 1.215 0 00-.459-.425 1.293 1.293 0 00-.62-.146c-.24 0-.45.049-.63.146-.179.095-.33.236-.454.425-.12.189-.213.423-.278.703a4.413 4.413 0 00-.093.957v.327c0 .358.031.677.093.957.065.277.16.511.283.704.124.192.275.336.454.434.183.098.394.147.635.147.231 0 .436-.05.615-.147.183-.098.336-.242.46-.434a2.19 2.19 0 00.278-.704c.065-.28.097-.599.097-.957zM41.837 45h-1.563l.01-1.23h1.553c.355 0 .654-.082.898-.245.245-.166.43-.41.557-.732.127-.326.19-.721.19-1.187v-.327c0-.351-.035-.66-.107-.927a1.9 1.9 0 00-.317-.68 1.312 1.312 0 00-.523-.41 1.727 1.727 0 00-.708-.136h-1.582v-1.235h1.582c.482 0 .921.081 1.319.244.4.163.745.395 1.035.698.293.303.519.66.678 1.074.16.414.24.874.24 1.382v.317c0 .505-.08.966-.24 1.382-.16.414-.385.772-.678 1.075a3.01 3.01 0 01-1.03.693 3.433 3.433 0 01-1.314.244zm-.66-7.11V45h-1.591v-7.11h1.592z" fill="#252525"/></svg>