<svg width="250" height="227" viewBox="0 0 250 227" fill="none" xmlns="http://www.w3.org/2000/svg">
<path d="M37 10C37 4.47716 41.4772 0 47 0H206C211.523 0 216 4.47715 216 10V179H37V10Z" fill="#EEA849"/>
<path d="M171.623 123.436H101.827L87.4929 135.672L73.1589 123.436H42.9667V131.826C42.9667 142.521 50.3539 151.233 59.4892 151.404C60.3388 156.69 62.3945 161.466 65.4885 165.203C70.0649 170.731 76.718 173.779 84.2206 173.779H130.369C137.872 173.779 144.525 170.731 149.101 165.196C152.195 161.459 154.251 156.683 155.1 151.397C159.953 151.31 164.313 148.81 167.337 144.884C170.161 141.12 171.667 136.531 171.623 131.826V123.436ZM74.0819 112.248L87.4824 122.104L101.002 112.248H171.623V109.451C171.619 106.229 170.504 103.106 168.466 100.609C166.428 98.113 163.592 96.3955 160.435 95.7465C160.149 85.3666 155.89 76.6788 148.021 70.5746C140.742 64.897 131.016 61.9043 119.881 61.9043H94.7089C70.8585 61.9043 54.7031 75.4586 54.1542 95.7465C50.9976 96.3955 48.1613 98.113 46.1234 100.609C44.0855 103.106 42.9706 106.229 42.9667 109.451V112.248H74.0819Z" fill="#252525"/>
<path d="M199.27 33.9355H173.193L176.311 21.4685L191.9 16.1055L188.404 5.9668L166.729 12.959L161.663 33.9355H110.092V45.123H116.647L117.297 50.7168H119.881C133.516 50.7168 145.633 54.5275 154.884 61.7365C160.029 65.701 164.2 70.7892 167.078 76.6124C168.852 80.225 170.114 84.0667 170.829 88.0271C176.039 91.2346 179.902 96.2297 181.697 102.078C183.491 107.927 183.094 114.229 180.58 119.807C182.053 123.643 182.809 127.717 182.811 131.826C182.811 139.636 180.154 147.08 175.329 152.785C172.343 156.342 168.519 159.1 164.201 160.809C162.729 165.002 160.537 168.907 157.723 172.346C157.31 172.842 156.887 173.328 156.453 173.797H182.811C188.404 173.797 190.852 171 191.551 165.756L204.277 45.1405H210.779V33.9355H199.27Z" fill="#252525"/>
<rect y="177" width="250" height="50" rx="10" fill="#EEA849"/>
<path d="M37.9375 203.016H32.0938L32.0625 199.797H36.9688C37.8333 199.797 38.5417 199.688 39.0938 199.469C39.6458 199.24 40.0573 198.911 40.3281 198.484C40.6094 198.047 40.75 197.516 40.75 196.891C40.75 196.182 40.6146 195.609 40.3438 195.172C40.0833 194.734 39.6719 194.417 39.1094 194.219C38.5573 194.021 37.8438 193.922 36.9688 193.922H33.7188V213H29.0312V190.25H36.9688C38.2917 190.25 39.474 190.375 40.5156 190.625C41.5677 190.875 42.4583 191.255 43.1875 191.766C43.9167 192.276 44.474 192.922 44.8594 193.703C45.2448 194.474 45.4375 195.391 45.4375 196.453C45.4375 197.391 45.224 198.255 44.7969 199.047C44.3802 199.839 43.7188 200.484 42.8125 200.984C41.9167 201.484 40.7448 201.76 39.2969 201.812L37.9375 203.016ZM37.7344 213H30.8125L32.6406 209.344H37.7344C38.5573 209.344 39.2292 209.214 39.75 208.953C40.2708 208.682 40.6562 208.318 40.9062 207.859C41.1562 207.401 41.2812 206.875 41.2812 206.281C41.2812 205.615 41.1667 205.036 40.9375 204.547C40.7188 204.057 40.3646 203.682 39.875 203.422C39.3854 203.151 38.7396 203.016 37.9375 203.016H33.4219L33.4531 199.797H39.0781L40.1562 201.062C41.5417 201.042 42.6562 201.286 43.5 201.797C44.3542 202.297 44.974 202.948 45.3594 203.75C45.7552 204.552 45.9531 205.411 45.9531 206.328C45.9531 207.786 45.6354 209.016 45 210.016C44.3646 211.005 43.4323 211.75 42.2031 212.25C40.9844 212.75 39.4948 213 37.7344 213ZM48.4688 204.719V204.391C48.4688 203.151 48.6458 202.01 49 200.969C49.3542 199.917 49.8698 199.005 50.5469 198.234C51.224 197.464 52.0573 196.865 53.0469 196.438C54.0365 196 55.1719 195.781 56.4531 195.781C57.7344 195.781 58.875 196 59.875 196.438C60.875 196.865 61.7135 197.464 62.3906 198.234C63.0781 199.005 63.599 199.917 63.9531 200.969C64.3073 202.01 64.4844 203.151 64.4844 204.391V204.719C64.4844 205.948 64.3073 207.089 63.9531 208.141C63.599 209.182 63.0781 210.094 62.3906 210.875C61.7135 211.646 60.8802 212.245 59.8906 212.672C58.901 213.099 57.7656 213.312 56.4844 213.312C55.2031 213.312 54.0625 213.099 53.0625 212.672C52.0729 212.245 51.2344 211.646 50.5469 210.875C49.8698 210.094 49.3542 209.182 49 208.141C48.6458 207.089 48.4688 205.948 48.4688 204.719ZM52.9688 204.391V204.719C52.9688 205.427 53.0312 206.089 53.1562 206.703C53.2812 207.318 53.4792 207.859 53.75 208.328C54.0312 208.786 54.3958 209.146 54.8438 209.406C55.2917 209.667 55.8385 209.797 56.4844 209.797C57.1094 209.797 57.6458 209.667 58.0938 209.406C58.5417 209.146 58.901 208.786 59.1719 208.328C59.4427 207.859 59.6406 207.318 59.7656 206.703C59.901 206.089 59.9688 205.427 59.9688 204.719V204.391C59.9688 203.703 59.901 203.057 59.7656 202.453C59.6406 201.839 59.4375 201.297 59.1562 200.828C58.8854 200.349 58.526 199.974 58.0781 199.703C57.6302 199.432 57.0885 199.297 56.4531 199.297C55.8177 199.297 55.276 199.432 54.8281 199.703C54.3906 199.974 54.0312 200.349 53.75 200.828C53.4792 201.297 53.2812 201.839 53.1562 202.453C53.0312 203.057 52.9688 203.703 52.9688 204.391ZM76.3906 208.328C76.3906 208.005 76.2969 207.714 76.1094 207.453C75.9219 207.193 75.5729 206.953 75.0625 206.734C74.5625 206.505 73.8385 206.297 72.8906 206.109C72.0365 205.922 71.2396 205.688 70.5 205.406C69.7708 205.115 69.1354 204.766 68.5938 204.359C68.0625 203.953 67.6458 203.474 67.3438 202.922C67.0417 202.359 66.8906 201.719 66.8906 201C66.8906 200.292 67.0417 199.625 67.3438 199C67.6562 198.375 68.099 197.823 68.6719 197.344C69.2552 196.854 69.9635 196.474 70.7969 196.203C71.6406 195.922 72.5885 195.781 73.6406 195.781C75.1094 195.781 76.3698 196.016 77.4219 196.484C78.4844 196.953 79.2969 197.599 79.8594 198.422C80.4323 199.234 80.7188 200.161 80.7188 201.203H76.2188C76.2188 200.766 76.125 200.375 75.9375 200.031C75.7604 199.677 75.4792 199.401 75.0938 199.203C74.7188 198.995 74.2292 198.891 73.625 198.891C73.125 198.891 72.6927 198.979 72.3281 199.156C71.9635 199.323 71.6823 199.552 71.4844 199.844C71.2969 200.125 71.2031 200.438 71.2031 200.781C71.2031 201.042 71.2552 201.276 71.3594 201.484C71.474 201.682 71.6562 201.865 71.9062 202.031C72.1562 202.198 72.4792 202.354 72.875 202.5C73.2812 202.635 73.7812 202.76 74.375 202.875C75.5938 203.125 76.6823 203.453 77.6406 203.859C78.599 204.255 79.3594 204.797 79.9219 205.484C80.4844 206.161 80.7656 207.052 80.7656 208.156C80.7656 208.906 80.599 209.594 80.2656 210.219C79.9323 210.844 79.4531 211.391 78.8281 211.859C78.2031 212.318 77.4531 212.677 76.5781 212.938C75.7135 213.188 74.7396 213.312 73.6562 213.312C72.0833 213.312 70.75 213.031 69.6562 212.469C68.5729 211.906 67.75 211.193 67.1875 210.328C66.6354 209.453 66.3594 208.557 66.3594 207.641H70.625C70.6458 208.255 70.8021 208.75 71.0938 209.125C71.3958 209.5 71.776 209.771 72.2344 209.938C72.7031 210.104 73.2083 210.188 73.75 210.188C74.3333 210.188 74.8177 210.109 75.2031 209.953C75.5885 209.786 75.8802 209.568 76.0781 209.297C76.2865 209.016 76.3906 208.693 76.3906 208.328ZM92.8281 208.328C92.8281 208.005 92.7344 207.714 92.5469 207.453C92.3594 207.193 92.0104 206.953 91.5 206.734C91 206.505 90.276 206.297 89.3281 206.109C88.474 205.922 87.6771 205.688 86.9375 205.406C86.2083 205.115 85.5729 204.766 85.0312 204.359C84.5 203.953 84.0833 203.474 83.7812 202.922C83.4792 202.359 83.3281 201.719 83.3281 201C83.3281 200.292 83.4792 199.625 83.7812 199C84.0938 198.375 84.5365 197.823 85.1094 197.344C85.6927 196.854 86.401 196.474 87.2344 196.203C88.0781 195.922 89.026 195.781 90.0781 195.781C91.5469 195.781 92.8073 196.016 93.8594 196.484C94.9219 196.953 95.7344 197.599 96.2969 198.422C96.8698 199.234 97.1562 200.161 97.1562 201.203H92.6562C92.6562 200.766 92.5625 200.375 92.375 200.031C92.1979 199.677 91.9167 199.401 91.5312 199.203C91.1562 198.995 90.6667 198.891 90.0625 198.891C89.5625 198.891 89.1302 198.979 88.7656 199.156C88.401 199.323 88.1198 199.552 87.9219 199.844C87.7344 200.125 87.6406 200.438 87.6406 200.781C87.6406 201.042 87.6927 201.276 87.7969 201.484C87.9115 201.682 88.0938 201.865 88.3438 202.031C88.5938 202.198 88.9167 202.354 89.3125 202.5C89.7188 202.635 90.2188 202.76 90.8125 202.875C92.0312 203.125 93.1198 203.453 94.0781 203.859C95.0365 204.255 95.7969 204.797 96.3594 205.484C96.9219 206.161 97.2031 207.052 97.2031 208.156C97.2031 208.906 97.0365 209.594 96.7031 210.219C96.3698 210.844 95.8906 211.391 95.2656 211.859C94.6406 212.318 93.8906 212.677 93.0156 212.938C92.151 213.188 91.1771 213.312 90.0938 213.312C88.5208 213.312 87.1875 213.031 86.0938 212.469C85.0104 211.906 84.1875 211.193 83.625 210.328C83.0729 209.453 82.7969 208.557 82.7969 207.641H87.0625C87.0833 208.255 87.2396 208.75 87.5312 209.125C87.8333 209.5 88.2135 209.771 88.6719 209.938C89.1406 210.104 89.6458 210.188 90.1875 210.188C90.7708 210.188 91.2552 210.109 91.6406 209.953C92.026 209.786 92.3177 209.568 92.5156 209.297C92.724 209.016 92.8281 208.693 92.8281 208.328ZM109 201.469V205H100.172V201.469H109ZM121.938 203.016H116.094L116.062 199.797H120.969C121.833 199.797 122.542 199.688 123.094 199.469C123.646 199.24 124.057 198.911 124.328 198.484C124.609 198.047 124.75 197.516 124.75 196.891C124.75 196.182 124.615 195.609 124.344 195.172C124.083 194.734 123.672 194.417 123.109 194.219C122.557 194.021 121.844 193.922 120.969 193.922H117.719V213H113.031V190.25H120.969C122.292 190.25 123.474 190.375 124.516 190.625C125.568 190.875 126.458 191.255 127.188 191.766C127.917 192.276 128.474 192.922 128.859 193.703C129.245 194.474 129.438 195.391 129.438 196.453C129.438 197.391 129.224 198.255 128.797 199.047C128.38 199.839 127.719 200.484 126.812 200.984C125.917 201.484 124.745 201.76 123.297 201.812L121.938 203.016ZM121.734 213H114.812L116.641 209.344H121.734C122.557 209.344 123.229 209.214 123.75 208.953C124.271 208.682 124.656 208.318 124.906 207.859C125.156 207.401 125.281 206.875 125.281 206.281C125.281 205.615 125.167 205.036 124.938 204.547C124.719 204.057 124.365 203.682 123.875 203.422C123.385 203.151 122.74 203.016 121.938 203.016H117.422L117.453 199.797H123.078L124.156 201.062C125.542 201.042 126.656 201.286 127.5 201.797C128.354 202.297 128.974 202.948 129.359 203.75C129.755 204.552 129.953 205.411 129.953 206.328C129.953 207.786 129.635 209.016 129 210.016C128.365 211.005 127.432 211.75 126.203 212.25C124.984 212.75 123.495 213 121.734 213ZM143.188 208.953V196.094H147.688V213H143.453L143.188 208.953ZM143.688 205.484L145.016 205.453C145.016 206.578 144.885 207.625 144.625 208.594C144.365 209.552 143.974 210.385 143.453 211.094C142.932 211.792 142.276 212.339 141.484 212.734C140.693 213.12 139.76 213.312 138.688 213.312C137.865 213.312 137.104 213.198 136.406 212.969C135.719 212.729 135.125 212.359 134.625 211.859C134.135 211.349 133.75 210.698 133.469 209.906C133.198 209.104 133.062 208.141 133.062 207.016V196.094H137.562V207.047C137.562 207.547 137.62 207.969 137.734 208.312C137.859 208.656 138.031 208.938 138.25 209.156C138.469 209.375 138.724 209.531 139.016 209.625C139.318 209.719 139.651 209.766 140.016 209.766C140.943 209.766 141.672 209.578 142.203 209.203C142.745 208.828 143.125 208.318 143.344 207.672C143.573 207.016 143.688 206.286 143.688 205.484ZM155.625 199.781V213H151.125V196.094H155.359L155.625 199.781ZM160.719 195.984L160.641 200.156C160.422 200.125 160.156 200.099 159.844 200.078C159.542 200.047 159.266 200.031 159.016 200.031C158.38 200.031 157.828 200.115 157.359 200.281C156.901 200.438 156.516 200.672 156.203 200.984C155.901 201.297 155.672 201.677 155.516 202.125C155.37 202.573 155.286 203.083 155.266 203.656L154.359 203.375C154.359 202.281 154.469 201.276 154.688 200.359C154.906 199.432 155.224 198.625 155.641 197.938C156.068 197.25 156.589 196.719 157.203 196.344C157.818 195.969 158.521 195.781 159.312 195.781C159.562 195.781 159.818 195.802 160.078 195.844C160.339 195.875 160.552 195.922 160.719 195.984ZM173.234 196.094H177.312V212.438C177.312 213.979 176.969 215.286 176.281 216.359C175.604 217.443 174.656 218.26 173.438 218.812C172.219 219.375 170.802 219.656 169.188 219.656C168.479 219.656 167.729 219.562 166.938 219.375C166.156 219.188 165.406 218.896 164.688 218.5C163.979 218.104 163.385 217.604 162.906 217L164.891 214.344C165.411 214.948 166.016 215.417 166.703 215.75C167.391 216.094 168.151 216.266 168.984 216.266C169.797 216.266 170.484 216.115 171.047 215.812C171.609 215.521 172.042 215.089 172.344 214.516C172.646 213.953 172.797 213.271 172.797 212.469V200L173.234 196.094ZM161.859 204.75V204.422C161.859 203.13 162.016 201.958 162.328 200.906C162.651 199.844 163.104 198.932 163.688 198.172C164.281 197.411 165 196.823 165.844 196.406C166.688 195.99 167.641 195.781 168.703 195.781C169.828 195.781 170.771 195.99 171.531 196.406C172.292 196.823 172.917 197.417 173.406 198.188C173.896 198.948 174.276 199.849 174.547 200.891C174.828 201.922 175.047 203.052 175.203 204.281V205C175.047 206.177 174.812 207.271 174.5 208.281C174.188 209.292 173.776 210.177 173.266 210.938C172.755 211.688 172.12 212.271 171.359 212.688C170.609 213.104 169.714 213.312 168.672 213.312C167.63 213.312 166.688 213.099 165.844 212.672C165.01 212.245 164.297 211.646 163.703 210.875C163.109 210.104 162.651 209.198 162.328 208.156C162.016 207.115 161.859 205.979 161.859 204.75ZM166.359 204.422V204.75C166.359 205.448 166.427 206.099 166.562 206.703C166.698 207.307 166.906 207.844 167.188 208.312C167.479 208.771 167.839 209.13 168.266 209.391C168.703 209.641 169.219 209.766 169.812 209.766C170.635 209.766 171.307 209.594 171.828 209.25C172.349 208.896 172.74 208.411 173 207.797C173.26 207.182 173.411 206.474 173.453 205.672V203.625C173.432 202.969 173.344 202.38 173.188 201.859C173.031 201.328 172.812 200.875 172.531 200.5C172.25 200.125 171.885 199.833 171.438 199.625C170.99 199.417 170.458 199.312 169.844 199.312C169.25 199.312 168.734 199.448 168.297 199.719C167.87 199.979 167.51 200.339 167.219 200.797C166.938 201.255 166.724 201.797 166.578 202.422C166.432 203.036 166.359 203.703 166.359 204.422ZM190.812 208.953V196.094H195.312V213H191.078L190.812 208.953ZM191.312 205.484L192.641 205.453C192.641 206.578 192.51 207.625 192.25 208.594C191.99 209.552 191.599 210.385 191.078 211.094C190.557 211.792 189.901 212.339 189.109 212.734C188.318 213.12 187.385 213.312 186.312 213.312C185.49 213.312 184.729 213.198 184.031 212.969C183.344 212.729 182.75 212.359 182.25 211.859C181.76 211.349 181.375 210.698 181.094 209.906C180.823 209.104 180.688 208.141 180.688 207.016V196.094H185.188V207.047C185.188 207.547 185.245 207.969 185.359 208.312C185.484 208.656 185.656 208.938 185.875 209.156C186.094 209.375 186.349 209.531 186.641 209.625C186.943 209.719 187.276 209.766 187.641 209.766C188.568 209.766 189.297 209.578 189.828 209.203C190.37 208.828 190.75 208.318 190.969 207.672C191.198 207.016 191.312 206.286 191.312 205.484ZM206.531 213.312C205.219 213.312 204.042 213.104 203 212.688C201.958 212.26 201.073 211.672 200.344 210.922C199.625 210.172 199.073 209.302 198.688 208.312C198.302 207.312 198.109 206.25 198.109 205.125V204.5C198.109 203.219 198.292 202.047 198.656 200.984C199.021 199.922 199.542 199 200.219 198.219C200.906 197.438 201.74 196.839 202.719 196.422C203.698 195.995 204.802 195.781 206.031 195.781C207.229 195.781 208.292 195.979 209.219 196.375C210.146 196.771 210.922 197.333 211.547 198.062C212.182 198.792 212.661 199.667 212.984 200.688C213.307 201.698 213.469 202.823 213.469 204.062V205.938H200.031V202.938H209.047V202.594C209.047 201.969 208.932 201.411 208.703 200.922C208.484 200.422 208.151 200.026 207.703 199.734C207.255 199.443 206.682 199.297 205.984 199.297C205.391 199.297 204.88 199.427 204.453 199.688C204.026 199.948 203.677 200.312 203.406 200.781C203.146 201.25 202.948 201.802 202.812 202.438C202.688 203.062 202.625 203.75 202.625 204.5V205.125C202.625 205.802 202.719 206.427 202.906 207C203.104 207.573 203.38 208.068 203.734 208.484C204.099 208.901 204.536 209.224 205.047 209.453C205.568 209.682 206.156 209.797 206.812 209.797C207.625 209.797 208.38 209.641 209.078 209.328C209.786 209.005 210.396 208.521 210.906 207.875L213.094 210.25C212.74 210.76 212.255 211.25 211.641 211.719C211.036 212.188 210.307 212.573 209.453 212.875C208.599 213.167 207.625 213.312 206.531 213.312ZM220.531 199.781V213H216.031V196.094H220.266L220.531 199.781ZM225.625 195.984L225.547 200.156C225.328 200.125 225.062 200.099 224.75 200.078C224.448 200.047 224.172 200.031 223.922 200.031C223.286 200.031 222.734 200.115 222.266 200.281C221.807 200.438 221.422 200.672 221.109 200.984C220.807 201.297 220.578 201.677 220.422 202.125C220.276 202.573 220.193 203.083 220.172 203.656L219.266 203.375C219.266 202.281 219.375 201.276 219.594 200.359C219.812 199.432 220.13 198.625 220.547 197.938C220.974 197.25 221.495 196.719 222.109 196.344C222.724 195.969 223.427 195.781 224.219 195.781C224.469 195.781 224.724 195.802 224.984 195.844C225.245 195.875 225.458 195.922 225.625 195.984Z" fill="#252525"/>
</svg>
