<svg width="122" height="55" viewBox="0 0 122 55" fill="none" xmlns="http://www.w3.org/2000/svg">
<path d="M68.6719 34.2793C68.6719 34.0254 68.6328 33.7975 68.5547 33.5957C68.4831 33.3874 68.3464 33.1986 68.1445 33.0293C67.9427 32.8535 67.6595 32.681 67.2949 32.5117C66.9303 32.3424 66.4583 32.1667 65.8789 31.9844C65.2344 31.776 64.6224 31.5417 64.043 31.2812C63.4701 31.0208 62.9622 30.7181 62.5195 30.373C62.0833 30.0215 61.7383 29.6146 61.4844 29.1523C61.237 28.6901 61.1133 28.153 61.1133 27.541C61.1133 26.9486 61.2435 26.4115 61.5039 25.9297C61.7643 25.4414 62.1289 25.0247 62.5977 24.6797C63.0664 24.3281 63.6198 24.0579 64.2578 23.8691C64.9023 23.6803 65.6087 23.5859 66.377 23.5859C67.4251 23.5859 68.3398 23.7747 69.1211 24.1523C69.9023 24.5299 70.5078 25.0475 70.9375 25.7051C71.3737 26.3626 71.5918 27.1146 71.5918 27.9609H68.6816C68.6816 27.5443 68.5938 27.1797 68.418 26.8672C68.2487 26.5482 67.9883 26.2975 67.6367 26.1152C67.2917 25.9329 66.8555 25.8418 66.3281 25.8418C65.8203 25.8418 65.3971 25.9199 65.0586 26.0762C64.7201 26.2259 64.4661 26.431 64.2969 26.6914C64.1276 26.9453 64.043 27.2318 64.043 27.5508C64.043 27.7917 64.1016 28.0098 64.2188 28.2051C64.3424 28.4004 64.5247 28.5827 64.7656 28.752C65.0065 28.9212 65.3027 29.0807 65.6543 29.2305C66.0059 29.3802 66.4128 29.5267 66.875 29.6699C67.6497 29.9043 68.3301 30.168 68.916 30.4609C69.5085 30.7539 70.0033 31.0827 70.4004 31.4473C70.7975 31.8118 71.097 32.2253 71.2988 32.6875C71.5007 33.1497 71.6016 33.6738 71.6016 34.2598C71.6016 34.8783 71.4811 35.4316 71.2402 35.9199C70.9993 36.4082 70.651 36.8216 70.1953 37.1602C69.7396 37.4987 69.196 37.7559 68.5645 37.9316C67.9329 38.1074 67.2266 38.1953 66.4453 38.1953C65.7422 38.1953 65.0488 38.1042 64.3652 37.9219C63.6816 37.7331 63.0599 37.4499 62.5 37.0723C61.9466 36.6947 61.5039 36.2129 61.1719 35.627C60.8398 35.041 60.6738 34.3477 60.6738 33.5469H63.6133C63.6133 33.9896 63.6816 34.3639 63.8184 34.6699C63.9551 34.9759 64.1471 35.2233 64.3945 35.4121C64.6484 35.6009 64.9479 35.7376 65.293 35.8223C65.6445 35.9069 66.0286 35.9492 66.4453 35.9492C66.9531 35.9492 67.3698 35.8776 67.6953 35.7344C68.0273 35.5911 68.2715 35.3926 68.4277 35.1387C68.5905 34.8848 68.6719 34.5983 68.6719 34.2793ZM79.1211 35.6172V30.9102C79.1211 30.5716 79.0658 30.2819 78.9551 30.041C78.8444 29.7936 78.6719 29.6016 78.4375 29.4648C78.2096 29.3281 77.9134 29.2598 77.5488 29.2598C77.2363 29.2598 76.9661 29.3151 76.7383 29.4258C76.5104 29.5299 76.3346 29.6829 76.2109 29.8848C76.0872 30.0801 76.0254 30.3112 76.0254 30.5781H73.2129C73.2129 30.1289 73.3171 29.7025 73.5254 29.2988C73.7337 28.8952 74.0365 28.5404 74.4336 28.2344C74.8307 27.9219 75.3027 27.6777 75.8496 27.502C76.403 27.3262 77.0215 27.2383 77.7051 27.2383C78.5254 27.2383 79.2546 27.375 79.8926 27.6484C80.5306 27.9219 81.0319 28.332 81.3965 28.8789C81.7676 29.4258 81.9531 30.1094 81.9531 30.9297V35.4512C81.9531 36.0306 81.9889 36.5059 82.0605 36.877C82.1322 37.2415 82.2363 37.5605 82.373 37.834V38H79.5312C79.3945 37.7135 79.2904 37.3555 79.2188 36.9258C79.1536 36.4896 79.1211 36.0534 79.1211 35.6172ZM79.4922 31.5645L79.5117 33.1562H77.9395C77.5684 33.1562 77.2461 33.1986 76.9727 33.2832C76.6992 33.3678 76.4746 33.4883 76.2988 33.6445C76.123 33.7943 75.9928 33.9701 75.9082 34.1719C75.8301 34.3737 75.791 34.5951 75.791 34.8359C75.791 35.0768 75.8464 35.2949 75.957 35.4902C76.0677 35.679 76.2272 35.8288 76.4355 35.9395C76.6439 36.0436 76.888 36.0957 77.168 36.0957C77.5911 36.0957 77.959 36.0111 78.2715 35.8418C78.584 35.6725 78.8249 35.4642 78.9941 35.2168C79.1699 34.9694 79.2611 34.735 79.2676 34.5137L80.0098 35.7051C79.9056 35.972 79.7624 36.2487 79.5801 36.5352C79.4043 36.8216 79.1797 37.0918 78.9062 37.3457C78.6328 37.5931 78.304 37.7982 77.9199 37.9609C77.5358 38.1172 77.0801 38.1953 76.5527 38.1953C75.8822 38.1953 75.2734 38.0618 74.7266 37.7949C74.1862 37.5215 73.7565 37.1471 73.4375 36.6719C73.125 36.1901 72.9688 35.6432 72.9688 35.0312C72.9688 34.4779 73.0729 33.9863 73.2812 33.5566C73.4896 33.127 73.7956 32.7656 74.1992 32.4727C74.6094 32.1732 75.1204 31.9486 75.7324 31.7988C76.3444 31.6426 77.054 31.5645 77.8613 31.5645H79.4922ZM87.0898 27.4336V38H84.2676V27.4336H87.0898ZM84.0918 24.6797C84.0918 24.2695 84.235 23.931 84.5215 23.6641C84.8079 23.3971 85.1921 23.2637 85.6738 23.2637C86.1491 23.2637 86.5299 23.3971 86.8164 23.6641C87.1094 23.931 87.2559 24.2695 87.2559 24.6797C87.2559 25.0898 87.1094 25.4284 86.8164 25.6953C86.5299 25.9622 86.1491 26.0957 85.6738 26.0957C85.1921 26.0957 84.8079 25.9622 84.5215 25.6953C84.235 25.4284 84.0918 25.0898 84.0918 24.6797ZM92.168 29.6895V38H89.3555V27.4336H91.9922L92.168 29.6895ZM91.7578 32.3457H90.9961C90.9961 31.5645 91.097 30.8613 91.2988 30.2363C91.5007 29.6048 91.7839 29.0677 92.1484 28.625C92.513 28.1758 92.946 27.834 93.4473 27.5996C93.9551 27.3587 94.5215 27.2383 95.1465 27.2383C95.6413 27.2383 96.0938 27.3099 96.5039 27.4531C96.9141 27.5964 97.2656 27.8242 97.5586 28.1367C97.8581 28.4492 98.0859 28.8626 98.2422 29.377C98.4049 29.8913 98.4863 30.5195 98.4863 31.2617V38H95.6543V31.252C95.6543 30.7832 95.5892 30.4186 95.459 30.1582C95.3288 29.8978 95.1367 29.7155 94.8828 29.6113C94.6354 29.5007 94.3294 29.4453 93.9648 29.4453C93.5872 29.4453 93.2585 29.5202 92.9785 29.6699C92.7051 29.8197 92.4772 30.028 92.2949 30.2949C92.1191 30.5553 91.9857 30.8613 91.8945 31.2129C91.8034 31.5645 91.7578 31.9421 91.7578 32.3457ZM105.801 27.4336V29.4258H99.6484V27.4336H105.801ZM101.172 24.8262H103.984V34.8164C103.984 35.1224 104.023 35.3568 104.102 35.5195C104.186 35.6823 104.31 35.7962 104.473 35.8613C104.635 35.9199 104.84 35.9492 105.088 35.9492C105.264 35.9492 105.42 35.9427 105.557 35.9297C105.7 35.9102 105.82 35.8906 105.918 35.8711L105.928 37.9414C105.687 38.0195 105.426 38.0814 105.146 38.127C104.867 38.1725 104.557 38.1953 104.219 38.1953C103.6 38.1953 103.06 38.0944 102.598 37.8926C102.142 37.6842 101.79 37.3522 101.543 36.8965C101.296 36.4408 101.172 35.8418 101.172 35.0996V24.8262ZM110.371 23V38H107.549V23H110.371ZM115.83 36.8086L118.633 27.4336H121.65L117.402 39.5918C117.311 39.8587 117.188 40.1452 117.031 40.4512C116.882 40.7572 116.676 41.0469 116.416 41.3203C116.162 41.6003 115.84 41.8281 115.449 42.0039C115.065 42.1797 114.593 42.2676 114.033 42.2676C113.766 42.2676 113.548 42.2513 113.379 42.2188C113.21 42.1862 113.008 42.1406 112.773 42.082V40.0215C112.845 40.0215 112.92 40.0215 112.998 40.0215C113.076 40.028 113.151 40.0312 113.223 40.0312C113.594 40.0312 113.896 39.9889 114.131 39.9043C114.365 39.8197 114.554 39.6895 114.697 39.5137C114.84 39.3444 114.954 39.123 115.039 38.8496L115.83 36.8086ZM114.658 27.4336L116.953 35.0898L117.354 38.0684L115.439 38.2734L111.641 27.4336H114.658Z" fill="#252525"/>
<rect width="55" height="55" fill="#EEA849"/>
<path d="M29.3164 30.0894C29.3164 29.9624 29.2762 29.8503 29.1958 29.7529C29.1196 29.6556 28.98 29.5667 28.7769 29.4863C28.578 29.4059 28.2965 29.3255 27.9326 29.2451C27.5898 29.1732 27.2703 29.0801 26.9741 28.9658C26.6779 28.8473 26.4198 28.7056 26.1997 28.5405C25.9797 28.3713 25.8083 28.1724 25.6855 27.9438C25.5628 27.7111 25.5015 27.4466 25.5015 27.1504C25.5015 26.8626 25.5628 26.5897 25.6855 26.3315C25.8125 26.0734 25.9945 25.8449 26.2314 25.646C26.4727 25.4471 26.7646 25.2905 27.1074 25.1763C27.4544 25.062 27.848 25.0049 28.2881 25.0049C28.8932 25.0049 29.4159 25.1001 29.856 25.2905C30.2961 25.4767 30.6346 25.7391 30.8716 26.0776C31.1086 26.4119 31.2271 26.7949 31.2271 27.2266H29.2466C29.2466 27.0488 29.2127 26.8944 29.145 26.7632C29.0773 26.632 28.9736 26.5304 28.834 26.4585C28.6943 26.3823 28.5103 26.3442 28.2817 26.3442C28.104 26.3442 27.9474 26.376 27.812 26.4395C27.6808 26.4987 27.5771 26.5812 27.501 26.687C27.429 26.7928 27.3931 26.9155 27.3931 27.0552C27.3931 27.1525 27.4142 27.2414 27.4565 27.3218C27.5031 27.3979 27.5729 27.4699 27.666 27.5376C27.7633 27.6011 27.8882 27.6582 28.0405 27.709C28.1971 27.7598 28.3875 27.8084 28.6118 27.855C29.09 27.9438 29.5259 28.0687 29.9194 28.2295C30.3172 28.3903 30.6346 28.6125 30.8716 28.896C31.1128 29.1795 31.2334 29.554 31.2334 30.0195C31.2334 30.3242 31.1636 30.6035 31.0239 30.8574C30.8885 31.1113 30.6917 31.3335 30.4336 31.5239C30.1755 31.7144 29.8665 31.8625 29.5068 31.9683C29.1471 32.0741 28.7409 32.127 28.2881 32.127C27.6406 32.127 27.0926 32.0106 26.644 31.7778C26.1955 31.5451 25.8569 31.2531 25.6284 30.9019C25.4041 30.5464 25.292 30.1825 25.292 29.8101H27.1519C27.1603 30.0386 27.2174 30.2248 27.3232 30.3687C27.4333 30.5125 27.575 30.6183 27.7485 30.686C27.922 30.7495 28.1167 30.7812 28.3325 30.7812C28.5483 30.7812 28.7282 30.7516 28.8721 30.6924C29.016 30.6331 29.126 30.5527 29.2021 30.4512C29.2783 30.3454 29.3164 30.2248 29.3164 30.0894Z" fill="#252525"/>
<path d="M12.1777 9.89062V17H10.5859V9.89062H12.1777ZM14.9756 12.8887V14.1191H11.7334V12.8887H14.9756ZM15.2881 9.89062V11.126H11.7334V9.89062H15.2881Z" fill="#252525"/>
<path d="M45.5137 13.2891V13.6064C45.5137 14.1468 45.4388 14.6318 45.2891 15.0615C45.1426 15.4912 44.9326 15.8574 44.6592 16.1602C44.389 16.4629 44.0667 16.6956 43.6924 16.8584C43.3213 17.0179 42.9095 17.0977 42.457 17.0977C42.0046 17.0977 41.5911 17.0179 41.2168 16.8584C40.8424 16.6956 40.5169 16.4629 40.2402 16.1602C39.9668 15.8574 39.7552 15.4912 39.6055 15.0615C39.4557 14.6318 39.3809 14.1468 39.3809 13.6064V13.2891C39.3809 12.7487 39.4557 12.2637 39.6055 11.834C39.7552 11.401 39.9652 11.0332 40.2354 10.7305C40.5088 10.4277 40.8327 10.1966 41.207 10.0371C41.5814 9.87435 41.9948 9.79297 42.4473 9.79297C42.8997 9.79297 43.3132 9.87435 43.6875 10.0371C44.0618 10.1966 44.3841 10.4277 44.6543 10.7305C44.9277 11.0332 45.1393 11.401 45.2891 11.834C45.4388 12.2637 45.5137 12.7487 45.5137 13.2891ZM43.9072 13.6064V13.2793C43.9072 12.918 43.8747 12.599 43.8096 12.3223C43.7445 12.0423 43.6501 11.8079 43.5264 11.6191C43.4027 11.4303 43.2497 11.2887 43.0674 11.1943C42.8851 11.0967 42.6784 11.0479 42.4473 11.0479C42.2064 11.0479 41.9964 11.0967 41.8174 11.1943C41.6383 11.2887 41.487 11.4303 41.3633 11.6191C41.2428 11.8079 41.1501 12.0423 41.085 12.3223C41.0231 12.599 40.9922 12.918 40.9922 13.2793V13.6064C40.9922 13.9645 41.0231 14.2835 41.085 14.5635C41.1501 14.8402 41.2445 15.0745 41.3682 15.2666C41.4919 15.4587 41.6432 15.6035 41.8223 15.7012C42.0046 15.7988 42.2161 15.8477 42.457 15.8477C42.6882 15.8477 42.8932 15.7988 43.0723 15.7012C43.2546 15.6035 43.4076 15.4587 43.5312 15.2666C43.6549 15.0745 43.7477 14.8402 43.8096 14.5635C43.8747 14.2835 43.9072 13.9645 43.9072 13.6064Z" fill="#252525"/>
<path d="M16.5137 41.2891V41.6064C16.5137 42.1468 16.4388 42.6318 16.2891 43.0615C16.1426 43.4912 15.9326 43.8574 15.6592 44.1602C15.389 44.4629 15.0667 44.6956 14.6924 44.8584C14.3213 45.0179 13.9095 45.0977 13.457 45.0977C13.0046 45.0977 12.5911 45.0179 12.2168 44.8584C11.8424 44.6956 11.5169 44.4629 11.2402 44.1602C10.9668 43.8574 10.7552 43.4912 10.6055 43.0615C10.4557 42.6318 10.3809 42.1468 10.3809 41.6064V41.2891C10.3809 40.7487 10.4557 40.2637 10.6055 39.834C10.7552 39.401 10.9652 39.0332 11.2354 38.7305C11.5088 38.4277 11.8327 38.1966 12.207 38.0371C12.5814 37.8743 12.9948 37.793 13.4473 37.793C13.8997 37.793 14.3132 37.8743 14.6875 38.0371C15.0618 38.1966 15.3841 38.4277 15.6543 38.7305C15.9277 39.0332 16.1393 39.401 16.2891 39.834C16.4388 40.2637 16.5137 40.7487 16.5137 41.2891ZM14.9072 41.6064V41.2793C14.9072 40.918 14.8747 40.599 14.8096 40.3223C14.7445 40.0423 14.6501 39.8079 14.5264 39.6191C14.4027 39.4303 14.2497 39.2887 14.0674 39.1943C13.8851 39.0967 13.6784 39.0479 13.4473 39.0479C13.2064 39.0479 12.9964 39.0967 12.8174 39.1943C12.6383 39.2887 12.487 39.4303 12.3633 39.6191C12.2428 39.8079 12.1501 40.0423 12.085 40.3223C12.0231 40.599 11.9922 40.918 11.9922 41.2793V41.6064C11.9922 41.9645 12.0231 42.2835 12.085 42.5635C12.1501 42.8402 12.2445 43.0745 12.3682 43.2666C12.4919 43.4587 12.6432 43.6035 12.8223 43.7012C13.0046 43.7988 13.2161 43.8477 13.457 43.8477C13.6882 43.8477 13.8932 43.7988 14.0723 43.7012C14.2546 43.6035 14.4076 43.4587 14.5312 43.2666C14.6549 43.0745 14.7477 42.8402 14.8096 42.5635C14.8747 42.2835 14.9072 41.9645 14.9072 41.6064Z" fill="#252525"/>
<path d="M41.8369 45H40.2744L40.2842 43.7695H41.8369C42.1917 43.7695 42.4912 43.6882 42.7354 43.5254C42.9795 43.3594 43.165 43.1152 43.292 42.793C43.4189 42.4674 43.4824 42.0719 43.4824 41.6064V41.2793C43.4824 40.9277 43.4466 40.6185 43.375 40.3516C43.3034 40.0814 43.1976 39.8551 43.0576 39.6729C42.9176 39.4906 42.7435 39.3538 42.5352 39.2627C42.3301 39.1715 42.0941 39.126 41.8271 39.126H40.2451V37.8906H41.8271C42.3089 37.8906 42.7484 37.972 43.1455 38.1348C43.5459 38.2975 43.891 38.5303 44.1807 38.833C44.4736 39.1357 44.6999 39.4938 44.8594 39.9072C45.0189 40.3206 45.0986 40.7812 45.0986 41.2891V41.6064C45.0986 42.111 45.0189 42.5716 44.8594 42.9883C44.6999 43.4017 44.4736 43.7598 44.1807 44.0625C43.891 44.362 43.5475 44.5931 43.1504 44.7559C42.7533 44.9186 42.3154 45 41.8369 45ZM41.1777 37.8906V45H39.5859V37.8906H41.1777Z" fill="#252525"/>
</svg>
