<?xml version="1.0" standalone="no"?><svg xmlns="http://www.w3.org/2000/svg" viewBox="0 0 1440 320"><path fill="#eea849" fill-opacity="1" d="M0,256L34.3,224C68.6,192,137,128,206,106.7C274.3,85,343,107,411,133.3C480,160,549,192,617,202.7C685.7,213,754,203,823,170.7C891.4,139,960,85,1029,96C1097.1,107,1166,181,1234,208C1302.9,235,1371,213,1406,202.7L1440,192L1440,320L1405.7,320C1371.4,320,1303,320,1234,320C1165.7,320,1097,320,1029,320C960,320,891,320,823,320C754.3,320,686,320,617,320C548.6,320,480,320,411,320C342.9,320,274,320,206,320C137.1,320,69,320,34,320L0,320Z"></path></svg>